<svg width="686" height="162" viewBox="0 0 686 162" fill="none" xmlns="http://www.w3.org/2000/svg">
<rect width="686" height="162" fill="white"/>
<path d="M104.392 24.792V119H85.832V80.728H43.72V119H25.16V24.792H43.72V62.808H85.832V24.792H104.392ZM153.236 120.536C146.409 120.536 140.607 119.256 135.828 116.696C131.135 114.136 127.551 110.595 125.076 106.072C122.601 101.549 121.364 96.344 121.364 90.456C121.364 84.824 122.815 79.7467 125.716 75.224C128.617 70.7013 132.5 67.1173 137.364 64.472C142.228 61.7413 147.647 60.376 153.62 60.376C161.641 60.376 168.212 62.7227 173.332 67.416C178.537 72.024 181.908 78.7227 183.444 87.512L139.924 101.336L135.956 91.608L167.444 80.984L163.732 82.648C163.049 80.4293 161.812 78.5093 160.02 76.888C158.313 75.1813 155.711 74.328 152.212 74.328C149.567 74.328 147.22 74.968 145.172 76.248C143.209 77.4427 141.673 79.192 140.564 81.496C139.54 83.7147 139.028 86.36 139.028 89.432C139.028 92.9307 139.668 95.8747 140.948 98.264C142.228 100.568 143.977 102.317 146.196 103.512C148.415 104.707 150.889 105.304 153.62 105.304C155.583 105.304 157.46 104.963 159.252 104.28C161.129 103.597 162.964 102.701 164.756 101.592L172.692 114.904C169.705 116.611 166.463 117.976 162.964 119C159.551 120.024 156.308 120.536 153.236 120.536ZM220.018 120.536C214.813 120.536 210.077 119.512 205.81 117.464C201.629 115.331 198.301 112.088 195.826 107.736C193.351 103.384 192.114 97.8373 192.114 91.096C192.114 84.7813 193.394 79.32 195.954 74.712C198.514 70.104 201.885 66.5627 206.066 64.088C210.247 61.528 214.685 60.248 219.378 60.248C224.925 60.248 229.106 61.1867 231.922 63.064C234.823 64.856 237.213 66.8613 239.09 69.08L238.322 71.256L239.986 63.064H256.626V119H238.706V106.84L240.114 110.68C239.943 110.68 239.431 111.192 238.578 112.216C237.725 113.155 236.445 114.307 234.738 115.672C233.117 116.952 231.069 118.061 228.594 119C226.205 120.024 223.346 120.536 220.018 120.536ZM225.138 105.944C227.271 105.944 229.191 105.645 230.898 105.048C232.605 104.365 234.098 103.427 235.378 102.232C236.658 100.952 237.767 99.3733 238.706 97.496V83.8C238.023 81.9227 236.999 80.344 235.634 79.064C234.269 77.6987 232.647 76.6747 230.77 75.992C228.893 75.224 226.802 74.84 224.498 74.84C221.938 74.84 219.549 75.5227 217.33 76.888C215.197 78.168 213.49 79.96 212.21 82.264C210.93 84.568 210.29 87.2133 210.29 90.2C210.29 93.1867 210.973 95.8747 212.338 98.264C213.703 100.653 215.495 102.531 217.714 103.896C220.018 105.261 222.493 105.944 225.138 105.944ZM275.091 18.008H293.011V119H275.091V18.008ZM311.466 63.064H329.386V119H311.466V63.064ZM311.082 43.224C311.082 40.5787 312.106 38.4027 314.154 36.696C316.287 34.9893 318.549 34.136 320.938 34.136C323.327 34.136 325.503 34.9893 327.466 36.696C329.514 38.4027 330.538 40.5787 330.538 43.224C330.538 45.8693 329.514 48.0453 327.466 49.752C325.503 51.3733 323.327 52.184 320.938 52.184C318.549 52.184 316.287 51.3733 314.154 49.752C312.106 48.0453 311.082 45.8693 311.082 43.224ZM364.097 63.064L365.505 73.048L365.249 72.152C367.212 68.6533 369.985 65.8373 373.569 63.704C377.153 61.4853 381.548 60.376 386.753 60.376C392.044 60.376 396.438 61.9547 399.937 65.112C403.521 68.184 405.356 72.1947 405.441 77.144V119H387.521V83.8C387.436 81.3253 386.753 79.3627 385.473 77.912C384.278 76.376 382.23 75.608 379.329 75.608C376.598 75.608 374.209 76.504 372.161 78.296C370.113 80.088 368.534 82.52 367.425 85.592C366.316 88.664 365.761 92.2053 365.761 96.216V119H347.841V63.064H364.097ZM452.769 147.16C447.734 147.16 443.468 146.563 439.969 145.368C436.556 144.173 433.654 142.723 431.265 141.016C428.876 139.309 426.742 137.688 424.865 136.152L435.361 123.864C437.324 125.656 439.585 127.363 442.145 128.984C444.79 130.691 448.246 131.544 452.513 131.544C455.329 131.544 457.932 131.032 460.321 130.008C462.796 129.069 464.758 127.661 466.209 125.784C467.745 123.907 468.513 121.56 468.513 118.744V106.456L469.153 109.656C467.788 112.557 465.313 115.117 461.729 117.336C458.145 119.469 453.452 120.536 447.649 120.536C442.614 120.536 437.921 119.256 433.569 116.696C429.302 114.051 425.889 110.509 423.329 106.072C420.769 101.549 419.489 96.4293 419.489 90.712C419.489 84.824 420.854 79.6187 423.585 75.096C426.316 70.488 429.857 66.8613 434.209 64.216C438.561 61.5707 443.169 60.248 448.033 60.248C452.897 60.248 457.078 60.9733 460.577 62.424C464.161 63.7893 466.849 65.496 468.641 67.544L468.001 69.208L469.921 63.064H486.433V119C486.433 124.461 484.897 129.283 481.825 133.464C478.753 137.731 474.657 141.059 469.537 143.448C464.502 145.923 458.913 147.16 452.769 147.16ZM437.537 90.2C437.537 93.1867 438.22 95.8747 439.585 98.264C440.95 100.653 442.785 102.531 445.089 103.896C447.478 105.261 450.124 105.944 453.025 105.944C455.5 105.944 457.676 105.645 459.553 105.048C461.516 104.365 463.222 103.427 464.673 102.232C466.209 100.952 467.489 99.3733 468.513 97.496V83.8C467.745 81.9227 466.593 80.344 465.057 79.064C463.521 77.6987 461.729 76.6747 459.681 75.992C457.718 75.224 455.5 74.84 453.025 74.84C450.124 74.84 447.478 75.5227 445.089 76.888C442.785 78.168 440.95 79.96 439.585 82.264C438.22 84.568 437.537 87.2133 437.537 90.2Z" fill="#1C1D53"/>
<path d="M491.33 24.536H528.034V34.896H514.788V79H504.058V34.896H491.33V24.536ZM542.713 80.554C539.803 80.554 537.361 79.666 535.387 77.89C533.414 76.0647 532.378 73.7213 532.279 70.86V46.662H542.639V67.012C542.738 68.4427 543.108 69.602 543.749 70.49C544.391 71.3287 545.476 71.748 547.005 71.748C548.535 71.748 549.842 71.23 550.927 70.194C552.062 69.158 552.925 67.752 553.517 65.976C554.159 64.1507 554.479 62.1033 554.479 59.834V46.662H564.839V79H555.441L554.627 73.08L554.775 73.746C554.035 75.078 553.098 76.262 551.963 77.298C550.829 78.334 549.472 79.1233 547.893 79.666C546.364 80.258 544.637 80.554 542.713 80.554ZM596.732 79.888C594.019 79.888 591.725 79.444 589.85 78.556C588.025 77.6187 586.421 76.41 585.04 74.93L585.854 72.71V79H575.494V20.614H585.78V52.212V48.882C587.063 47.7967 588.765 46.884 590.886 46.144C593.007 45.404 595.425 45.034 598.138 45.034C600.95 45.034 603.515 45.7 605.834 47.032C608.153 48.364 610.003 50.3127 611.384 52.878C612.815 55.394 613.53 58.4773 613.53 62.128C613.53 65.7787 612.741 68.936 611.162 71.6C609.633 74.264 607.585 76.3113 605.02 77.742C602.455 79.1727 599.692 79.888 596.732 79.888ZM594.438 71.156C595.967 71.156 597.373 70.7613 598.656 69.972C599.988 69.1827 601.049 68.0973 601.838 66.716C602.627 65.3347 603.022 63.7807 603.022 62.054C603.022 60.3273 602.627 58.798 601.838 57.466C601.049 56.134 599.988 55.098 598.656 54.358C597.373 53.5687 595.967 53.174 594.438 53.174C593.106 53.174 591.848 53.396 590.664 53.84C589.529 54.2347 588.543 54.8267 587.704 55.616C586.915 56.356 586.298 57.2687 585.854 58.354V66.272C586.446 67.3573 587.137 68.27 587.926 69.01C588.765 69.7007 589.727 70.2433 590.812 70.638C591.897 70.9833 593.106 71.156 594.438 71.156ZM637.582 79.888C633.635 79.888 630.28 79.148 627.518 77.668C624.804 76.188 622.732 74.1407 621.302 71.526C619.871 68.9113 619.156 65.902 619.156 62.498C619.156 59.242 619.994 56.3067 621.672 53.692C623.349 51.0773 625.594 49.0053 628.406 47.476C631.218 45.8973 634.35 45.108 637.804 45.108C642.441 45.108 646.24 46.4647 649.2 49.178C652.209 51.842 654.158 55.7147 655.046 60.796L629.886 68.788L627.592 63.164L645.796 57.022L643.65 57.984C643.255 56.7013 642.54 55.5913 641.504 54.654C640.517 53.6673 639.012 53.174 636.99 53.174C635.46 53.174 634.104 53.544 632.92 54.284C631.785 54.9747 630.897 55.986 630.256 57.318C629.664 58.6007 629.368 60.13 629.368 61.906C629.368 63.9287 629.738 65.6307 630.478 67.012C631.218 68.344 632.229 69.3553 633.512 70.046C634.794 70.7367 636.225 71.082 637.804 71.082C638.938 71.082 640.024 70.8847 641.06 70.49C642.145 70.0953 643.206 69.5773 644.242 68.936L648.83 76.632C647.103 77.6187 645.228 78.408 643.206 79C641.232 79.592 639.358 79.888 637.582 79.888Z" fill="#D30808"/>
</svg>
